<svg xmlns="http://www.w3.org/2000/svg" viewBox="0 0 512 512" width="100%" height="100%">
  <defs>
    <linearGradient id="mintGradient" x1="0%" y1="0%" x2="100%" y2="100%">
      <stop offset="0%" stop-color="#00BFA5" />
      <stop offset="100%" stop-color="#00897B" />
    </linearGradient>
    <filter id="shadow" x="-10%" y="-10%" width="120%" height="120%">
      <feDropShadow dx="0" dy="12" stdDeviation="16" flood-color="#1B2D4F" flood-opacity="0.1" />
    </filter>
  </defs>

  <rect x="40" y="40" width="432" height="432" rx="100" fill="#FFFFFF" filter="url(#shadow)" />

  <rect x="220" y="140" width="72" height="232" rx="16" fill="#1B2D4F" />
  <rect x="140" y="220" width="232" height="72" rx="16" fill="#1B2D4F" />

  <path d="M256 160 C 256 160, 166 280, 166 350 C 166 399.7, 206.3 440, 256 440 C 305.7 440, 346 399.7, 346 350 C 346 280, 256 160, 256 160 Z" fill="url(#mintGradient)" opacity="0.95" />
  
  <path d="M200 340 C 200 300, 230 230, 256 190 C 230 240, 212 310, 218 360 C 205 355, 200 348, 200 340 Z" fill="#FFFFFF" opacity="0.3" />

  <circle cx="256" cy="365" r="14" fill="#F59E0B" />
</svg>
